  <svg id="magnifying-glass" class="user-icon" width="23" height="22" viewBox="0 0 23 22" fill="none"
                    xmlns="http://www.w3.org/2000/svg">
                    <path
                        d="M14.8542 12.8333H14.0971L13.8288 12.5858C14.7679 11.5408 15.3333 10.1842 15.3333 8.70833C15.3333 5.4175 12.5446 2.75 9.10417 2.75C5.66375 2.75 2.875 5.4175 2.875 8.70833C2.875 11.9992 5.66375 14.6667 9.10417 14.6667C10.6471 14.6667 12.0654 14.1258 13.1579 13.2275L13.4167 13.4842V14.2083L18.2083 18.7825L19.6363 17.4167L14.8542 12.8333ZM9.10417 12.8333C6.71792 12.8333 4.79167 10.9908 4.79167 8.70833C4.79167 6.42583 6.71792 4.58333 9.10417 4.58333C11.4904 4.58333 13.4167 6.42583 13.4167 8.70833C13.4167 10.9908 11.4904 12.8333 9.10417 12.8333Z"
                        fill="#918E8E" />
                </svg>